<svg xmlns="http://www.w3.org/2000/svg" width="50" height="50" viewBox="0 0 50 50">
  <g id="Group_4882" data-name="Group 4882" transform="translate(-106.02 -61.977)" opacity="0.5">
    <path id="Path_27" data-name="Path 27" d="M197.007,181.578c-1.96-.809-2.634-1.833-2.637-4.005,0-1.188-.037-2.377.007-3.563a7.23,7.23,0,0,0-2.853-6.077,14.934,14.934,0,0,1-3.88-4.71,14.558,14.558,0,1,1,27.383-8.733,13.661,13.661,0,0,1-5.049,13.167,7.885,7.885,0,0,0-3.113,6.616c.035,1.3.007,2.6.006,3.9a3.2,3.2,0,0,1-2.512,3.328.6.6,0,0,0-.124.072Zm7.778-8.352c.034-.269.054-.479.087-.687a10.81,10.81,0,0,1,3.907-6.6,11.779,11.779,0,0,0,4.062-11.891,12.268,12.268,0,0,0-14.359-9.762,12.658,12.658,0,0,0-10.013,15.162,12.093,12.093,0,0,0,4.351,6.861,9.063,9.063,0,0,1,3.558,6.016c.042.3.065.6.1.9Zm-8.256,2.125c0,1.106-.048,2.191.019,3.269.038.611.444.873,1.088.88.91.01,1.82,0,2.731,0,1.089,0,2.178.008,3.267,0,.656-.007,1.077-.262,1.1-.8.055-1.111.016-2.227.016-3.349Z" transform="translate(-69.599 -69.602)"/>
    <path id="Path_28" data-name="Path 28" d="M106.02,246.262a1.2,1.2,0,0,1,1.278-.761c1.267.014,2.534,0,3.8.007.7.006,1.1.338,1.164.924a.961.961,0,0,1-.92,1.144c-1.461.039-2.923.023-4.385.008a1.038,1.038,0,0,1-.938-.737Z" transform="translate(0 -159.58)"/>
    <path id="Path_29" data-name="Path 29" d="M444.508,247.6c-.651,0-1.3.009-1.952,0-.762-.013-1.182-.407-1.17-1.072.012-.64.426-1.016,1.169-1.022q1.952-.016,3.9,0c.744.006,1.158.382,1.17,1.022.013.665-.407,1.058-1.17,1.072C445.81,247.612,445.159,247.6,444.508,247.6Z" transform="translate(-291.611 -159.578)"/>
    <path id="Path_30" data-name="Path 30" d="M289.58,65.085c0-.651-.01-1.3,0-1.952.014-.739.392-1.151,1.035-1.156a1,1,0,0,1,1.056,1.134q.022,1.976,0,3.954c-.007.74-.392,1.151-1.035,1.157-.663.006-1.046-.413-1.058-1.183C289.571,66.387,289.579,65.736,289.58,65.085Z" transform="translate(-159.607)"/>
    <path id="Path_31" data-name="Path 31" d="M164.575,119.289a1.4,1.4,0,0,1-.792,1.263,1.035,1.035,0,0,1-1.14-.328c-.879-.955-1.773-1.9-2.654-2.85a1.042,1.042,0,1,1,1.478-1.44c.9.891,1.8,1.78,2.678,2.691A3.388,3.388,0,0,1,164.575,119.289Z" transform="translate(-46.576 -46.544)"/>
    <path id="Path_32" data-name="Path 32" d="M399.823,358.364a5.032,5.032,0,0,1-1-.583c-.889-.836-1.74-1.712-2.6-2.581a.993.993,0,0,1-.16-1.437.964.964,0,0,1,1.461-.144c1.033.992,2.04,2.01,3.041,3.034a.928.928,0,0,1,.149,1.09c-.159.356-.387.607-.847.469Z" transform="translate(-251.999 -253.355)"/>
    <path id="Path_33" data-name="Path 33" d="M160.68,358.343c-.469-.064-.851-.167-1.023-.618a1.017,1.017,0,0,1,.27-1.157c.954-.951,1.9-1.911,2.863-2.852a1.022,1.022,0,1,1,1.462,1.429q-1.409,1.448-2.861,2.854A2.562,2.562,0,0,1,160.68,358.343Z" transform="translate(-46.571 -253.384)"/>
    <path id="Path_34" data-name="Path 34" d="M400.826,118.234a2.342,2.342,0,0,1-.339.582c-.9.935-1.828,1.853-2.755,2.766a1.313,1.313,0,0,1-1.41.244.944.944,0,0,1-.271-1.427c1.017-1.075,2.074-2.112,3.135-3.143a.88.88,0,0,1,1.05-.108A1.078,1.078,0,0,1,400.826,118.234Z" transform="translate(-252 -47.866)"/>
    <path id="Path_35" data-name="Path 35" d="M230.807,194.989c-.271-.037-.544-.063-.812-.111a7.013,7.013,0,0,1-4.123-2.315,7.12,7.12,0,0,1-.321-9.044,7.134,7.134,0,0,1,9.97-1.381c.015.011.028.024.054.047l-.7.912a5.932,5.932,0,0,0-4.641-1.151,5.785,5.785,0,0,0-3.287,1.725,5.978,5.978,0,1,0,10.224,4.763h-5.933v-1.17h6.951c.06,0,.121,0,.181,0v1c-.011.1-.023.2-.034.3a7.166,7.166,0,0,1-5.879,6.314c-.269.048-.541.075-.812.111Z" transform="translate(-100.516 -100.376)" stroke="#000" stroke-width="1.2"/>
  </g>
</svg>
