<svg xmlns="http://www.w3.org/2000/svg" width="40" height="40" viewBox="0 0 40 40">
  <g id="Group_40" data-name="Group 40" transform="translate(-165 -368)">
    <path id="Path_33" data-name="Path 33" d="M304.042,604.935a.435.435,0,0,0-.1-.06,2.363,2.363,0,0,1-1.872-2.49q0-5.037,0-10.074c0-.664-.005-1.328,0-1.991a2.377,2.377,0,0,1,2.483-2.483q10.366-.007,20.733,0a2.394,2.394,0,0,1,2.429,1.813.674.674,0,0,0,.074.128v13.2a9.8,9.8,0,0,1-.493,1,2.658,2.658,0,0,1-1.46.957Zm-.615-11.543v.478q0,4.179,0,8.358c0,.991.345,1.335,1.339,1.335h20.308c1.025,0,1.349-.326,1.349-1.36q0-4.14,0-8.28c0-.53,0-.531-.521-.531H303.427Zm22.964-1.377c0-.69.025-1.351-.01-2.01a.791.791,0,0,0-.6-.705,2.518,2.518,0,0,0-.729-.084q-10.116-.006-20.231,0c-.143,0-.287,0-.429.009a.933.933,0,0,0-.933.836c-.048.642-.012,1.291-.012,1.956Z" transform="translate(-122.792 -196.935)" fill="#86bb28"/>
    <path id="Path_34" data-name="Path 34" d="M173.047,368c.526.131,1.063.227,1.575.4a7.263,7.263,0,1,1-9.551,7.863,1.234,1.234,0,0,0-.07-.215v-1.562a.852.852,0,0,0,.067-.175,7.255,7.255,0,0,1,5.516-6.109c.3-.074.6-.134.9-.2Zm-.764,1.372a5.9,5.9,0,1,0,5.874,5.9A5.893,5.893,0,0,0,172.283,369.372Z" transform="translate(0)" fill="#86bb28"/>
    <path id="Path_37" data-name="Path 37" d="M329.8,432.749h9.41c.8,0,.985.19.986,1q0,6.345.007,12.689c0,.065,0,.13,0,.2-.015.51-.28.825-.692.823s-.682-.32-.683-.828c0-2.108-.011-4.217.007-6.325,0-.337-.116-.449-.418-.558a7.646,7.646,0,0,1-5.14-5.326c-.082-.3-.241-.3-.476-.3q-6.227.005-12.455,0a1.914,1.914,0,0,1-.539-.056.659.659,0,0,1,.042-1.264,2.4,2.4,0,0,1,.542-.042Q325.093,432.748,329.8,432.749Zm9,5.7v-4.306h-4.206A6.494,6.494,0,0,0,338.8,438.448Z" transform="translate(-138.272 -58.004)" fill="#86bb28"/>
    <path id="Path_38" data-name="Path 38" d="M214.74,527.525c.224,0,.47-.012.715,0a.688.688,0,0,1,.719.71.68.68,0,0,1-.75.672q-3.455,0-6.909-.005a.7.7,0,0,1-.784-.8q-.005-4.586,0-9.173a.7.7,0,0,1,.683-.784c.4,0,.67.305.675.792q.012,1.249,0,2.5c0,.222.043.334.292.406a7.177,7.177,0,0,1,5.24,5.4c.017.063.037.125.059.186A.726.726,0,0,0,214.74,527.525Zm-1.482-.02c-.447-2.236-2.52-4.1-4.14-4.258V527.5Z" transform="translate(-38.277 -134.503)" fill="#86bb28"/>
    <path id="Path_39" data-name="Path 39" d="M331.781,490.719a4.213,4.213,0,0,1-4.4,4.307,4.144,4.144,0,0,1-3.639-3.4,4.416,4.416,0,0,1,2.429-4.887,4.016,4.016,0,0,1,5.477,2.974C331.716,490.045,331.737,490.384,331.781,490.719ZM325,490.84c.023.157.043.4.1.644a2.71,2.71,0,0,0,2.949,2.165,2.669,2.669,0,0,0,2.189-1.982,2.941,2.941,0,0,0-.75-3.13,2.478,2.478,0,0,0-3.569,0A3.182,3.182,0,0,0,325,490.84Z" transform="translate(-142.12 -106.085)" fill="#86bb28"/>
    <path id="Path_40" data-name="Path 40" d="M274.116,512.233a1.963,1.963,0,1,1,.041-3.926,1.963,1.963,0,0,1-.041,3.926Zm.02-1.361a.609.609,0,0,0,.585-.607.583.583,0,0,0-.6-.577.593.593,0,0,0-.588.6A.617.617,0,0,0,274.136,510.873Z" transform="translate(-96.006 -125.692)" fill="#86bb28"/>
    <path id="Path_41" data-name="Path 41" d="M418.592,512.127a1.96,1.96,0,1,1,1.955-1.963A1.957,1.957,0,0,1,418.592,512.127Zm-.028-1.358a.6.6,0,0,0,.6-.587.586.586,0,0,0-.576-.608.6.6,0,0,0-.6.584A.609.609,0,0,0,418.564,510.769Z" transform="translate(-225.404 -125.603)" fill="#86bb28"/>
    <path id="Path_42" data-name="Path 42" d="M227.507,683.014c.2,0,.392-.015.585,0a.659.659,0,0,1,.618.64.63.63,0,0,1-.587.7,7.508,7.508,0,0,1-1.169.006.638.638,0,0,1-.618-.712.664.664,0,0,1,.663-.636c.169-.011.338,0,.508,0Z" transform="translate(-54.946 -282.194)" fill="#86bb28"/>
    <path id="Path_43" data-name="Path 43" d="M184.7,684.316a4.416,4.416,0,0,1-.581,0,.673.673,0,0,1,0-1.332,7.968,7.968,0,0,1,1.24,0,.632.632,0,0,1,.556.684.618.618,0,0,1-.558.641,5.75,5.75,0,0,1-.657.035Z" transform="translate(-16.614 -282.15)" fill="#86bb28"/>
    <path id="Path_44" data-name="Path 44" d="M211.159,700.705c0,.182.013.366,0,.546a.663.663,0,0,1-.68.618.65.65,0,0,1-.653-.6,10.326,10.326,0,0,1,0-1.17.643.643,0,0,1,.677-.614.658.658,0,0,1,.66.637c.014.194,0,.39,0,.585Z" transform="translate(-40.139 -296.954)" fill="#86bb28"/>
    <path id="Path_45" data-name="Path 45" d="M211.161,657.974c0,.2.015.392,0,.585a.675.675,0,0,1-.688.613.661.661,0,0,1-.645-.614,10.37,10.37,0,0,1,0-1.17.65.65,0,0,1,.684-.609.666.666,0,0,1,.648.61C211.175,657.582,211.161,657.778,211.161,657.974Z" transform="translate(-40.141 -258.697)" fill="#86bb28"/>
    <path id="Path_46" data-name="Path 46" d="M407.822,702.433h-4.607c-.1,0-.208,0-.312,0-.476-.023-.785-.3-.781-.7a.707.707,0,0,1,.792-.68q4.938-.005,9.877,0a.7.7,0,0,1,.781.691.708.708,0,0,1-.792.684C411.127,702.437,409.475,702.432,407.822,702.433Z" transform="translate(-212.422 -298.359)" fill="#86bb28"/>
    <path id="Path_47" data-name="Path 47" d="M407.892,664.968c1.626,0,3.253,0,4.879,0,.513,0,.853.321.793.745a.639.639,0,0,1-.573.6,3.1,3.1,0,0,1-.428.019h-9.445c-.66,0-.986-.221-1-.669s.331-.7,1.009-.7Z" transform="translate(-212.421 -266.033)" fill="#86bb28"/>
    <path id="Path_48" data-name="Path 48" d="M199.5,406.41h5.56a.588.588,0,0,0,.659-.422.612.612,0,0,0-.562-.809c-.062,0-.125,0-.188,0h-5.515c.061-.064.095-.1.13-.136q.938-.936,1.876-1.872a.62.62,0,1,0-.807-.94c-.047.041-.091.087-.135.131l-2.927,2.93a.629.629,0,0,0-.006,1c1,1,2.009,2.005,3.007,3.014a.625.625,0,0,0,1.07-.282.6.6,0,0,0-.2-.6q-.933-.931-1.864-1.863c-.037-.037-.08-.069-.12-.1Z" transform="translate(-28.969 -30.527)" fill="#86bb28"/>
  </g>
</svg>
