<?xml version="1.0" encoding="UTF-8"?>
<svg id="Layer_1" data-name="Layer 1" xmlns="http://www.w3.org/2000/svg" viewBox="0 0 84 15.71">
  <defs>
    <style>
      .cls-1 {
        fill: #fff;
      }

      .cls-2 {
        fill: #86bc25;
      }
    </style>
  </defs>
  <g id="deloitte">
    <path id="Path_1" data-name="Path 1" class="cls-2" d="m79.56,13.43c.03-1.23,1.04-2.2,2.27-2.18,1.19.03,2.15.98,2.18,2.18-.02,1.22-1,2.21-2.22,2.22-1.23,0-2.22-1-2.22-2.22h0"/>
    <path id="Path_2" data-name="Path 2" class="cls-1" d="m12.78,7.45c.16,2.17-.58,4.31-2.04,5.93-1.58,1.46-3.69,2.21-5.84,2.08H0V.05h5.19c2.05-.16,4.07.53,5.6,1.9,1.42,1.47,2.14,3.47,1.99,5.51m-4.26.14c.09-1.11-.2-2.22-.83-3.15-.63-.71-1.55-1.08-2.5-1.02h-1.11v8.61h.93c1.04.08,2.05-.33,2.73-1.11.59-1.01.86-2.17.79-3.34"/>
    <rect id="Rectangle_2" data-name="Rectangle 2" class="cls-1" x="26.26" width="3.84" height="15.47"/>
    <path id="Path_3" data-name="Path 3" class="cls-1" d="m42.79,9.68c.1,1.6-.43,3.19-1.48,4.4-1.1,1.09-2.62,1.66-4.17,1.57-1.53.09-3.02-.51-4.07-1.62-1.05-1.2-1.6-2.76-1.53-4.35-.11-1.59.42-3.16,1.48-4.35,1.1-1.09,2.62-1.66,4.17-1.57,1.02-.02,2.02.22,2.92.69.85.46,1.53,1.17,1.94,2.04.53.98.79,2.09.74,3.2m-7.27,0c-.04.76.09,1.52.37,2.22.22.5.75.8,1.3.74.55.05,1.07-.24,1.3-.74.27-.71.4-1.46.37-2.22.04-.76-.09-1.52-.37-2.22-.24-.49-.76-.78-1.3-.74-.54-.03-1.05.26-1.3.74-.28.71-.41,1.46-.37,2.22"/>
    <rect id="Rectangle_3" data-name="Rectangle 3" class="cls-1" x="44.36" y="3.94" width="3.84" height="11.48"/>
    <rect id="Rectangle_4" data-name="Rectangle 4" class="cls-1" x="44.36" width="3.84" height="2.59"/>
    <path id="Path_4" data-name="Path 4" class="cls-1" d="m56.03,12.5c.63-.03,1.26-.15,1.85-.37v2.92c-.47.21-.97.37-1.48.46-.55.1-1.11.15-1.67.14-1.05.1-2.08-.27-2.82-1.02-.64-.87-.95-1.93-.88-3.01v-4.72h-1.34v-2.96h1.34V1.06l3.89-.65v3.61h2.5v2.92h-2.5v4.45c.09.79.42,1.11,1.11,1.11"/>
    <path id="Path_5" data-name="Path 5" class="cls-1" d="m65.01,12.5c.63-.03,1.26-.15,1.85-.37v2.92c-.47.21-.97.37-1.48.46-.55.1-1.11.15-1.67.14-1.05.1-2.08-.27-2.82-1.02-.64-.87-.95-1.93-.88-3.01v-4.72h-1.34v-2.96h1.34V1.02l3.89-.6v3.61h2.5v2.92h-2.5v4.45c.05.79.42,1.11,1.11,1.11"/>
    <path id="Path_6" data-name="Path 6" class="cls-1" d="m77.24,5.09c-1.06-.96-2.46-1.44-3.89-1.34-1.54-.1-3.04.48-4.12,1.57-1.03,1.26-1.55,2.87-1.43,4.49-.1,1.6.45,3.17,1.53,4.35,1.19,1.07,2.76,1.62,4.35,1.53.78.02,1.55-.04,2.32-.18.65-.13,1.27-.34,1.85-.65l-.56-2.59c-.98.43-2.03.63-3.1.6-.63.03-1.25-.15-1.76-.51-.43-.39-.67-.95-.65-1.53h6.9v-1.81c.04-1.45-.48-2.85-1.44-3.94m-5.46,3.2c0-.51.19-1,.51-1.39.31-.29.73-.44,1.16-.42.45-.02.88.14,1.2.46.3.38.46.86.46,1.34h-3.33Z"/>
    <path id="Path_7" data-name="Path 7" class="cls-1" d="m23.39,5.09c-1.06-.95-2.47-1.44-3.89-1.34-1.54-.1-3.04.48-4.12,1.57-1.03,1.26-1.55,2.87-1.44,4.49-.1,1.6.45,3.17,1.53,4.35,1.19,1.07,2.76,1.62,4.35,1.53.78.02,1.55-.04,2.31-.18.65-.13,1.27-.34,1.85-.65l-.56-2.64c-.98.43-2.03.63-3.1.6-.63.03-1.25-.15-1.76-.51-.43-.39-.67-.95-.65-1.53h6.9v-1.76c.04-1.45-.48-2.85-1.44-3.94m-5.51,3.2c0-.51.19-1,.51-1.39.31-.29.73-.44,1.16-.42.45-.03.89.14,1.2.46.3.38.46.86.46,1.34h-3.33Z"/>
  </g>
</svg>