<?xml version="1.0" encoding="utf-8"?>
<!-- Svg Vector Icons : http://www.onlinewebfonts.com/icon -->
<!DOCTYPE svg PUBLIC "-//W3C//DTD SVG 1.1//EN" "http://www.w3.org/Graphics/SVG/1.1/DTD/svg11.dtd">
<svg version="1.1" xmlns="http://www.w3.org/2000/svg" xmlns:xlink="http://www.w3.org/1999/xlink" x="0px" y="0px" viewBox="0 0 1000 1000" enable-background="new 0 0 1000 1000" xml:space="preserve">
<metadata> Svg Vector Icons : http://www.onlinewebfonts.com/icon </metadata>
<g><g><path d="M841.7,34.4C822.3,18,794.2,10,755.6,10c-55.8,0-107.1,16.6-152.5,49.3C559,91.1,516.9,143.7,478,215.5c-12.8,23.5-21.9,32.5-26.4,35.9h-77.3c-31.9,0-57.8,25.9-57.8,57.8c0,26.5,17.9,48.6,42.2,55.4l-0.1,0.5h1.7c4.5,1.1,9.2,1.9,14,1.9h55.5l-96.3,377.1c-21.2,82-30.4,111.3-34.4,121.5c-4.3,10.9-9.6,20.8-16.3,29.9c-1.2-15.9-7.8-29.9-19.2-40.8c-12.6-12-29.8-18.1-51.2-18.1c-24.2,0-44.4,7.2-60,21.3c-16,14.5-24.4,33-24.4,53.4c0,15.2,5,37.4,29,57c18.1,14.6,43.7,21.7,78.4,21.7c50.4,0,95.9-13.5,135.2-40c38.6-26.1,72.5-66.2,100.6-119.4c27.7-52.1,55.1-132.9,83.7-247.2L609.7,367h88.4c31.9,0,57.8-25.9,57.8-57.8s-25.9-57.8-57.8-57.8h-57.8c18.7-63.7,41.8-111.8,69.1-143.1c6.7-7.9,15.5-16.8,24.8-22.6c-4.5,10-6.8,19.9-6.8,29.6c0,18.2,7.1,34.5,20.4,47.2c13.2,12.8,29.9,19.3,49.7,19.3c20.9,0,39.4-7.9,53.5-22.7c14-14.7,21.2-34.3,21.2-58C872.1,74.3,861.6,51.2,841.7,34.4z"/></g><g></g><g></g><g></g><g></g><g></g><g></g><g></g><g></g><g></g><g></g><g></g><g></g><g></g><g></g><g></g></g>
</svg>