<svg xmlns="http://www.w3.org/2000/svg" width="97.973" height="15.698" viewBox="0 0 97.973 15.698">
  <g id="Group_7819" data-name="Group 7819" transform="translate(0 -1)">
    <g id="deloitte" transform="translate(0 1)">
      <path id="Path_1" data-name="Path 1" d="M171.8,26.423a2.223,2.223,0,0,1,4.445,0,2.254,2.254,0,0,1-2.223,2.223,2.223,2.223,0,0,1-2.223-2.223" transform="translate(-92.245 -12.994)" fill="#86bc25"/>
      <path id="Path_2" data-name="Path 2" d="M12.781,7.509a7.951,7.951,0,0,1-2.037,5.927A7.888,7.888,0,0,1,4.908,15.52H0V.1H5.186a7.544,7.544,0,0,1,5.6,1.9,7.178,7.178,0,0,1,1.991,5.51m-4.26.139A4.922,4.922,0,0,0,7.687,4.5a3.072,3.072,0,0,0-2.5-1.019H4.075v8.613H5a3.272,3.272,0,0,0,2.732-1.111A5.9,5.9,0,0,0,8.52,7.648" transform="translate(0 -0.054)" fill="#fff"/>
      <rect id="Rectangle_2" data-name="Rectangle 2" width="3.843" height="15.466" transform="translate(26.256)" fill="#fff"/>
      <path id="Path_3" data-name="Path 3" d="M79.352,14.027a6.106,6.106,0,0,1-1.482,4.4A5.481,5.481,0,0,1,73.7,20a5.206,5.206,0,0,1-4.075-1.621A6.163,6.163,0,0,1,68.1,14.027a5.917,5.917,0,0,1,1.482-4.353A5.481,5.481,0,0,1,73.749,8.1a5.91,5.91,0,0,1,2.917.695,4.6,4.6,0,0,1,1.945,2.037,6.149,6.149,0,0,1,.741,3.2m-7.27,0a5.354,5.354,0,0,0,.37,2.223,1.264,1.264,0,0,0,1.3.741,1.3,1.3,0,0,0,1.3-.741,5.67,5.67,0,0,0,.37-2.223,5.354,5.354,0,0,0-.37-2.223,1.331,1.331,0,0,0-1.3-.741,1.39,1.39,0,0,0-1.3.741,5.354,5.354,0,0,0-.37,2.223" transform="translate(-36.565 -4.349)" fill="#fff"/>
      <rect id="Rectangle_3" data-name="Rectangle 3" width="3.843" height="11.484" transform="translate(44.362 3.936)" fill="#fff"/>
      <rect id="Rectangle_4" data-name="Rectangle 4" width="3.843" height="2.593" transform="translate(44.362)" fill="#fff"/>
      <path id="Path_4" data-name="Path 4" d="M113.644,12.986a6.222,6.222,0,0,0,1.852-.37v2.917a6.775,6.775,0,0,1-1.482.463,8.629,8.629,0,0,1-1.667.139,3.514,3.514,0,0,1-2.825-1.019,4.575,4.575,0,0,1-.88-3.01V7.383H107.3V4.419h1.343V1.548L112.533.9V4.512h2.5V7.429h-2.5v4.445c.093.787.417,1.111,1.111,1.111" transform="translate(-57.613 -0.483)" fill="#fff"/>
      <path id="Path_5" data-name="Path 5" d="M133.044,12.986a6.222,6.222,0,0,0,1.852-.37v2.917a6.774,6.774,0,0,1-1.482.463,8.629,8.629,0,0,1-1.667.139,3.514,3.514,0,0,1-2.825-1.019,4.575,4.575,0,0,1-.88-3.01V7.383H126.7V4.419h1.343V1.5l3.89-.6V4.512h2.5V7.429h-2.5v4.445c.046.787.417,1.111,1.111,1.111" transform="translate(-68.03 -0.483)" fill="#fff"/>
      <path id="Path_6" data-name="Path 6" d="M155.847,9.443a5.237,5.237,0,0,0-3.89-1.343,5.308,5.308,0,0,0-4.121,1.574,6.388,6.388,0,0,0-1.435,4.492,5.937,5.937,0,0,0,1.528,4.353,6.011,6.011,0,0,0,4.353,1.528,11.143,11.143,0,0,0,2.315-.185,6.786,6.786,0,0,0,1.852-.648l-.556-2.593a7.175,7.175,0,0,1-3.1.6,2.84,2.84,0,0,1-1.76-.509,1.955,1.955,0,0,1-.648-1.528h6.9V13.379a5.721,5.721,0,0,0-1.436-3.936m-5.464,3.2a2.253,2.253,0,0,1,.509-1.389,1.541,1.541,0,0,1,1.158-.417,1.571,1.571,0,0,1,1.2.463,2.211,2.211,0,0,1,.463,1.343Z" transform="translate(-78.607 -4.349)" fill="#fff"/>
      <path id="Path_7" data-name="Path 7" d="M39.547,9.443A5.309,5.309,0,0,0,35.657,8.1a5.308,5.308,0,0,0-4.121,1.574A6.388,6.388,0,0,0,30.1,14.166a5.937,5.937,0,0,0,1.528,4.353,6.011,6.011,0,0,0,4.353,1.528,11.143,11.143,0,0,0,2.315-.185,6.787,6.787,0,0,0,1.852-.648l-.556-2.639a7.174,7.174,0,0,1-3.1.6,2.84,2.84,0,0,1-1.76-.509,1.955,1.955,0,0,1-.648-1.528h6.9v-1.76a5.721,5.721,0,0,0-1.435-3.936m-5.51,3.2a2.253,2.253,0,0,1,.509-1.389,1.541,1.541,0,0,1,1.158-.417,1.506,1.506,0,0,1,1.2.463,2.211,2.211,0,0,1,.463,1.343Z" transform="translate(-16.162 -4.349)" fill="#fff"/>
    </g>
    <line id="Line_2" data-name="Line 2" y2="15" transform="translate(97.473 1.5)" fill="none" stroke="#97999b" stroke-width="1"/>
  </g>
</svg>
