<svg xmlns="http://www.w3.org/2000/svg" width="89.365" height="93.355" viewBox="0 0 89.365 93.355">
  <g id="Group_2066" data-name="Group 2066" transform="translate(0)">
    <g id="Group_1812" data-name="Group 1812" transform="translate(10.631)">
      <path id="Path_2358" data-name="Path 2358" d="M1385.669,189.33c.768-.106,1.5-.173,2.217-.332.184-.041.376-.352.446-.577a6.719,6.719,0,0,1,7.658-5.039c6.407.844,12.238-.472,17.336-4.686,1.621-1.34,3.244-1.065,4.375.706a5.794,5.794,0,0,0,4.17,2.887c1.371.207,1.965,1.084,2,2.62.027,1.287.021,2.575.034,3.863,0,.054.046.107.071.161l2.195.415c.023-.029.086-.073.085-.115-.04-3.523.069-7.058-.176-10.567-.213-3.04-1.4-5.692-4.25-7.234a3.64,3.64,0,0,1-.85-.812c-4.346-4.789-9.821-6.62-16.082-6.332a19.669,19.669,0,0,0-12.566,5.3,3.854,3.854,0,0,1-.477.374c-.017.017-.032.035-.051.052a14.668,14.668,0,0,0-3.294,3.871,2.214,2.214,0,0,1-.158.747,56.265,56.265,0,0,0-2.117,5.633C1385.442,183.216,1385.625,186.277,1385.669,189.33Z" transform="translate(-1376.824 -164.257)" fill="#4d4e4e"/>
      <path id="Path_2359" data-name="Path 2359" d="M1501.309,362.849c0-.01,0-.018,0-.028v-6.713c0-.035.008-.065.01-.1,0-.071-.013-.138-.013-.213-.012-1.411,0-2.822,0-4.233,0-1.219-.113-1.336-1.284-1.339-2.046-.005-4.093,0-6.139,0h-30.786c-1.325,0-1.465.134-1.466,1.45q0,11.917,0,23.834c0,1.279.171,1.451,1.391,1.451q18.462,0,36.925,0c1.214,0,1.357-.144,1.358-1.369,0-4.08,0-8.159.008-12.239C1501.307,363.194,1501.3,363.019,1501.309,362.849Zm-19.856,5.284a4.538,4.538,0,0,1-4.481-4.551,4.6,4.6,0,0,1,4.472-4.6,4.543,4.543,0,0,1,4.495,4.632A4.471,4.471,0,0,1,1481.453,368.133Z" transform="translate(-1430.144 -293.65)" fill="#d6d6d6"/>
      <path id="Path_2360" data-name="Path 2360" d="M1455.024,452.464c.636-.444,1.124-.989.823-1.836s-1-.948-1.775-.93c-1.233.03-2.468.027-3.7,0a2,2,0,0,1-2.077-1.434c-.214-.681-.026-1.08.713-1.118.21-.01.421,0,.632,0q22.431,0,44.862.01c.49,0,1.189-.27,1.355.509a1.464,1.464,0,0,1-.856,1.668,4.185,4.185,0,0,1-1.73.36q-15.616.03-31.232.015c-.21,0-.422.012-.632,0-.774-.053-1.478.081-1.778.919s.189,1.388.813,1.841Z" transform="translate(-1420.735 -361.065)" fill="#d6d6d6"/>
      <path id="Path_2362" data-name="Path 2362" d="M1427.444,218.622a17.024,17.024,0,0,0,2.219,2.42,15.723,15.723,0,0,0,3.1,1.595c.406.18.622.319.618.819-.036,4.353.135,8.717-.1,13.058a15.1,15.1,0,0,1-27.161,8,14.218,14.218,0,0,1-2.961-8.7c-.052-2.513-.033-5.028-.02-7.542.017-2.988,1.961-4.64,4.873-4.273,7.011.883,13.444-.532,19.054-5.109.117-.1.24-.183.364-.27C1427.448,218.611,1427.482,218.619,1427.444,218.622Z" transform="translate(-1389.104 -202.081)" fill="#d6d6d6"/>
      <path id="Path_2363" data-name="Path 2363" d="M1377.722,346.965c.512,3.518,2.016,5.461,8.192,6.041v21.663a3.573,3.573,0,0,0-3.381,1.473,4.118,4.118,0,0,0-.209,3.836h-13.932v-1q0-5.841,0-11.681c0-1.073-.515-1.66-1.39-1.638a1.315,1.315,0,0,0-1.3,1.355c-.028.545-.005,1.093-.005,1.7h-8.019c.207-1.132.4-2.23.611-3.322.58-2.937,1.182-5.87,1.754-8.809a6.072,6.072,0,0,1,4.017-4.8c4.424-1.638,8.89-3.161,13.339-4.73C1377.481,347.017,1377.571,347,1377.722,346.965Z" transform="translate(-1357.219 -291.384)" fill="#808991"/>
      <path id="Path_2364" data-name="Path 2364" d="M1363.115,424.079l-.632,14.13c-2.528,0-4.231.131-6.711,0-1.568-.083-1.061.036-.9-1.575-.13-3.7-.327-10.6,0-12.555Z" transform="translate(-1354.666 -345.772)" fill="#808991"/>
      <path id="Path_2365" data-name="Path 2365" d="M1446.332,323.894v5.991c-.843,0-1.645,0-2.446,0-2.964,0-4.293,1.335-4.345,4.344,0,.21-.024.42-.046.787-1.135-.232-2.223-.389-3.273-.684a2.764,2.764,0,0,1-2.11-2.764c-.054-1.65-.013-5.747-.013-7.51A17.97,17.97,0,0,0,1446.332,323.894Z" transform="translate(-1410.824 -276.158)" fill="#808991"/>
      <path id="Path_2366" data-name="Path 2366" d="M1513.978,254.873c1.671.024,2.867,1.055,2.849,2.38a2.543,2.543,0,0,1-2.849,2.3Z" transform="translate(-1466.874 -227.307)" fill="#efefef"/>
      <path id="Path_2367" data-name="Path 2367" d="M1386.974,254.88v4.683a2.53,2.53,0,0,1-2.841-2.311C1384.118,255.914,1385.3,254.9,1386.974,254.88Z" transform="translate(-1375.781 -227.312)" fill="#efefef"/>
      <path id="Path_2368" data-name="Path 2368" d="M1524.08,388.369a1.747,1.747,0,0,1,1.756,1.717,1.832,1.832,0,0,1-1.775,1.815,1.753,1.753,0,0,1-1.687-1.788A1.7,1.7,0,0,1,1524.08,388.369Z" transform="translate(-1472.765 -320.193)" fill="#86bc25"/>
    </g>
    <path id="Path_2369" data-name="Path 2369" d="M966.175,447.168q-21.053,0-42.1,0a8.224,8.224,0,0,1-1.366-.089c-.792-.137-1.168-.461-1.156-.9s.419-.747,1.214-.88a6.785,6.785,0,0,1,1.094-.078q42.383,0,84.767,0a6.324,6.324,0,0,1,1.18.1c.739.146,1.107.451,1.111.871s-.343.739-1.087.878a8.194,8.194,0,0,1-1.454.1Q987.273,447.172,966.175,447.168Z" transform="translate(-921.548 -353.814)" fill="#b8b8b8"/>
  </g>
</svg>
