<svg xmlns="http://www.w3.org/2000/svg" width="28.982" height="36.398" viewBox="0 0 28.982 36.398">
  <g id="Group_4899" data-name="Group 4899" transform="translate(-95.571 -166.589)">
    <path id="Path_63" data-name="Path 63" d="M95.773,184.75q0-6.6,0-13.2a4.731,4.731,0,0,1,3.7-4.7A2.3,2.3,0,0,1,100,166.8q7.288,0,14.576-.009a.911.911,0,0,1,.712.3l8.722,9.147a1.227,1.227,0,0,1,.346.891c0,6.936.007,13.872-.008,20.807a4.743,4.743,0,0,1-4.9,4.852q-9.383,0-18.765,0a4.752,4.752,0,0,1-4.91-4.905Q95.769,191.316,95.773,184.75Zm17.949-16.255c-.143-.008-.246-.019-.349-.019q-6.356,0-12.712,0a3,3,0,0,0-3.14,3.181q0,13.1,0,26.2a3.006,3.006,0,0,0,3.175,3.183q9.366.006,18.733,0a3.494,3.494,0,0,0,.939-.108,3.005,3.005,0,0,0,2.235-3.079q0-9.842,0-19.684v-.379h-.413q-2.236,0-4.472,0a3.8,3.8,0,0,1-4-4c0-1.632,0-3.263,0-4.895Zm7.682,7.546-5.9-6.2a1.66,1.66,0,0,0-.038.209c0,1.291-.026,2.583.006,3.874a2.043,2.043,0,0,0,2.186,2.111c.822.01,1.643,0,2.465,0Z" transform="translate(0)" fill="#53565a" stroke="#fff" stroke-width="0.4"/>
    <path id="Path_64" data-name="Path 64" d="M220.157,338.677v.382q0,4.437,0,8.874a.885.885,0,0,1-.779.994.857.857,0,0,1-.927-.686,2.617,2.617,0,0,1-.033-.49q0-4.331,0-8.662v-.412l-.092-.06c-.076.1-.146.2-.229.287q-1.555,1.679-3.114,3.356a.983.983,0,0,1-.95.4.851.851,0,0,1-.539-1.356,7.464,7.464,0,0,1,.541-.6l4.418-4.739c.608-.653,1.051-.66,1.65-.017q2.414,2.588,4.828,5.176a.93.93,0,0,1,.261.995.828.828,0,0,1-.706.561.908.908,0,0,1-.828-.366q-1.594-1.715-3.189-3.43a2.617,2.617,0,0,1-.2-.281Z" transform="translate(-109.233 -154.754)" fill="#53565a" stroke="#fff" stroke-width="0.4"/>
  </g>
</svg>
