<svg xmlns="http://www.w3.org/2000/svg" width="30" height="30" viewBox="0 0 30 30">
  <g id="MDI_chart-donut" data-name="MDI / chart-donut" transform="translate(-2.924 -2.924)" opacity="0.4">
    <g id="Boundary" transform="translate(2.924 2.924)" fill="#fff" stroke="rgba(0,0,0,0)" stroke-width="1" opacity="0">
      <rect width="30" height="30" stroke="none"/>
      <rect x="0.5" y="0.5" width="29" height="29" fill="none"/>
    </g>
    <path id="Path_chart-donut" data-name="Path / chart-donut" d="M18.376,2.05V6.558a10.409,10.409,0,0,1,8.932,10.294,10,10,0,0,1-.744,3.779l3.9,2.276a14.683,14.683,0,0,0,1.31-6.055,14.889,14.889,0,0,0-13.4-14.8M16.887,27.265A10.406,10.406,0,0,1,15.4,6.558V2.05A14.876,14.876,0,1,0,28.871,25.644L25,23.368A10.26,10.26,0,0,1,16.887,27.265Z" transform="translate(1.1 1.059)" fill="#fff"/>
  </g>
</svg>
