<svg id="MDI_handshake-outline" data-name="MDI / handshake-outline" xmlns="http://www.w3.org/2000/svg" width="36" height="36" viewBox="0 0 36 36">
  <g id="Boundary" fill="#fff" stroke="rgba(0,0,0,0)" stroke-width="1" opacity="0">
    <rect width="36" height="36" stroke="none"/>
    <rect x="0.5" y="0.5" width="35" height="35" fill="none"/>
  </g>
  <path id="Path_handshake-outline" data-name="Path / handshake-outline" d="M31.789,12.289a3.544,3.544,0,0,0,0-5.13l-4.5-4.5a3.542,3.542,0,0,0-5.13,0l-2.55,2.565H15.724a5.586,5.586,0,0,0-5.34,3.225l-6.66,6.66v6l-1.065,1.05a3.542,3.542,0,0,0,0,5.13l4.5,4.5A3.469,3.469,0,0,0,9.664,32.9a3.856,3.856,0,0,0,2.625-1.11l4.05-4.065h5.385a4.242,4.242,0,0,0,4.3-3.15,4.252,4.252,0,0,0,3-3,4.424,4.424,0,0,0,3.195-4.35v-4.5h-.885l.45-.435m-2.565,4.935a1.36,1.36,0,0,1-1.5,1.5h-1.5v1.5a1.36,1.36,0,0,1-1.5,1.5h-1.5v1.5a1.36,1.36,0,0,1-1.5,1.5H15.109l-4.92,4.92c-.465.435-.735.18-.9.015L4.8,25.189c-.435-.465-.18-.735-.015-.9l1.935-1.95v-6l3-3v2.385a4.371,4.371,0,0,0,4.5,4.5,4.371,4.371,0,0,0,4.5-4.5h10.5v1.5m.435-7.065-2.55,2.565H15.724v3a1.36,1.36,0,0,1-1.5,1.5,1.36,1.36,0,0,1-1.5-1.5v-4.5a2.816,2.816,0,0,1,3-3h5.115l3.42-3.42c.465-.435.735-.18.9-.015l4.485,4.47C30.079,9.724,29.824,9.994,29.659,10.159Z" transform="translate(1.449 1.449)" fill="#fff"/>
</svg>
