<svg xmlns="http://www.w3.org/2000/svg" width="33" height="33" viewBox="0 0 33 33">
  <g id="MDI_wallet-travel" data-name="MDI / wallet-travel" transform="translate(0.004)" opacity="0.4">
    <g id="Boundary" transform="translate(-0.004)" fill="#fff" stroke="rgba(0,0,0,0)" stroke-width="1" opacity="0">
      <rect width="33" height="33" stroke="none"/>
      <rect x="0.5" y="0.5" width="32" height="32" fill="none"/>
    </g>
    <path id="Path_wallet-travel" data-name="Path / wallet-travel" d="M24.4,16.463H4.489V9.232H8.221v2.411H10.71V9.232h7.466v2.411h2.488V9.232H24.4m0,13.258H4.489V20.079H24.4M10.71,4.411h7.466V6.821H10.71m13.687,0H20.664V4.411A2.442,2.442,0,0,0,18.175,2H10.71A2.442,2.442,0,0,0,8.221,4.411V6.821H4.489A2.442,2.442,0,0,0,2,9.232V22.489A2.442,2.442,0,0,0,4.489,24.9H24.4a2.442,2.442,0,0,0,2.489-2.411V9.232A2.442,2.442,0,0,0,24.4,6.821Z" transform="translate(1.969 2.8)" fill="#fff"/>
  </g>
</svg>
