<svg xmlns="http://www.w3.org/2000/svg" width="251" height="44" viewBox="0 0 251 44">
  <g id="Group_7043" data-name="Group 7043" transform="translate(-110 -675)">
    <g id="Group_7042" data-name="Group 7042" transform="translate(9732 4123)">
      <g id="Ellipse_77" data-name="Ellipse 77" transform="translate(-9622 -3448)" stroke="#43b02a" stroke-width="2">
        <circle cx="22" cy="22" r="22" stroke="none"/>
        <circle cx="22" cy="22" r="21" fill="none"/>
      </g>
      <g id="Polygon_14" data-name="Polygon 14" transform="translate(-9587 -3437) rotate(90)">
        <path d="M 18.53110885620117 18.00000190734863 L 3.468899011611938 18.00000190734863 C 2.947438955307007 18.00000190734863 2.689329147338867 17.64997291564941 2.602569103240967 17.49948310852051 C 2.515799045562744 17.34899139404297 2.342199087142944 16.95024299621582 2.603469133377075 16.49897193908691 L 10.13457870483398 3.490692138671875 C 10.39529895782471 3.040342092514038 10.8266487121582 2.991722106933594 10.99999904632568 2.991722106933594 C 11.17334938049316 2.991722106933594 11.60469913482666 3.040342092514038 11.86541938781738 3.490692138671875 L 19.39652824401855 16.49897193908691 C 19.65779876708984 16.95024299621582 19.48419952392578 17.34899139404297 19.39742851257324 17.49948310852051 C 19.3106689453125 17.64997291564941 19.05255889892578 18.00000190734863 18.53110885620117 18.00000190734863 Z" stroke="none"/>
        <path d="M 10.99999618530273 3.991727828979492 L 10.99999904632568 3.991722106933594 L 3.468889236450195 17.00000190734863 C 3.468893051147461 17.00000190734863 3.468894958496094 17.00000190734863 3.468898773193359 17.00000190734863 L 18.53110885620117 17.00000190734863 L 10.99999904632568 3.991731643676758 C 10.99999809265137 3.991729736328125 10.99999713897705 3.991727828979492 10.99999618530273 3.991727828979492 M 10.99999904632568 1.991724014282227 C 11.67284107208252 1.991724014282227 12.34568405151367 2.324367523193359 12.73084926605225 2.989652633666992 L 20.26195907592773 15.99793243408203 C 21.03388977050781 17.33126258850098 20.07176971435547 19.00000190734863 18.53110885620117 19.00000190734863 L 3.468898773193359 19.00000190734863 C 1.928228378295898 19.00000190734863 0.9661083221435547 17.33126258850098 1.738039016723633 15.99793243408203 L 9.269148826599121 2.989652633666992 C 9.654314041137695 2.324367523193359 10.32715702056885 1.991724014282227 10.99999904632568 1.991724014282227 Z" stroke="none" fill="#43b02a"/>
      </g>
    </g>
    <text id="See_a_quick_preview" data-name="See a quick preview" transform="translate(174 705)" fill="#fff" font-size="20" font-family="OpenSans-Medium, Open Sans" font-weight="500"><tspan x="0" y="0">See a quick preview</tspan></text>
  </g>
</svg>
