<svg xmlns="http://www.w3.org/2000/svg" width="36" height="36" viewBox="0 0 36 36">
  <g id="Group_6175" data-name="Group 6175" transform="translate(-5009 -2829)">
    <rect id="Rectangle_3169" data-name="Rectangle 3169" width="36" height="36" transform="translate(5009 2829)" fill="#707070"/>
    <path id="Path_25" data-name="Path 25" d="M6.227-2.65q0,.963-1.125.963H1.633q-1.1,0-1.1-.963V-5.243h1.82v2.2H4.4v-9.186H6.227Zm7.313,0q0,.963-1.109.963H8.75q-1.1,0-1.1-.963V-5.162H9.477v2.148h2.234V-5.081L8.047-8.071a1.045,1.045,0,0,1-.4-.842v-2.344q0-.97,1.1-.97h3.68q1.109,0,1.109.956v2.357H11.711V-10.9H9.477v1.906l3.664,2.977a1.047,1.047,0,0,1,.4.855Zm7.617,0q0,.963-1.109.963H16.078q-1.086,0-1.086-.963v-8.607q0-.97,1.086-.97h3.969q1.109,0,1.109.97Zm-1.828-.391v-7.832H16.82v7.832ZM28.82-1.687h-1.6l-2.93-6.634a3.463,3.463,0,0,1,.117.761v5.873H22.625v-10.54h1.6l2.93,6.5a3.463,3.463,0,0,1-.117-.761v-5.738H28.82Z" transform="translate(5012.469 2854.227)" fill="#fff"/>
  </g>
</svg>
