<svg xmlns="http://www.w3.org/2000/svg" width="19.444" height="35" viewBox="0 0 19.444 35">
  <path id="Path_currency-usd" data-name="Path / currency-usd" d="M7,26.333h3.889c0,2.1,2.664,3.889,5.833,3.889s5.833-1.789,5.833-3.889c0-2.139-2.022-2.917-6.3-3.947C12.133,21.356,7,20.072,7,14.667c0-3.481,2.858-6.436,6.806-7.428V3h5.833V7.239c3.947.992,6.806,3.947,6.806,7.428H22.556c0-2.1-2.664-3.889-5.833-3.889s-5.833,1.789-5.833,3.889c0,2.139,2.022,2.917,6.3,3.947,4.122,1.031,9.256,2.314,9.256,7.719,0,3.481-2.858,6.436-6.806,7.428V38H13.806V33.761C9.858,32.769,7,29.814,7,26.333Z" transform="translate(-7 -3)" fill="#fff"/>
</svg>
